# xmcd
#
# Track frame offsets:
#	150
#	9235
#	19134
#	28595
#	37860
#	48281
#	58393
#	68590
#	80379
#	89590
#	98172
#	105576
#	116780
#	127490
#	137375
#	148155
#
# Disc length: 2173 seconds
#
# Revision: 3
# Processed by: cddbd v1.5.2PL0 Copyright (c) Steve Scherf et al.
# Submitted via: EasyCDDAExtractor 15.3.0.1
#
DISCID=d8087b10
DTITLE=Rosalia - Todos Sus Ep's En Zafiro (1963-1967) 2 Cd - Cd 1
DYEAR=1967
DGENRE=Espanja Pop
TTITLE0=Eres Exigente
TTITLE1=La Luna Tiene Dos Caras
TTITLE2=La Hora (Con Los Relampagos)
TTITLE3=Chiss, Chiss
TTITLE4=Dile
TTITLE5=Cúlpale A La Bossa Nova
TTITLE6=La Clase Acabó
TTITLE7=Como Tú No Hay Ninguno
TTITLE8=Llámame
TTITLE9=Cada Cual
TTITLE10=Nuestro Mundo
TTITLE11=La Hora (Con Orguesta)
TTITLE12=Dominique
TTITLE13=La Misma Playa
TTITLE14=Sabato Sera
TTITLE15=No Tengo Edad
EXTD=
EXTT0=
EXTT1=
EXTT2=
EXTT3=
EXTT4=
EXTT5=
EXTT6=
EXTT7=
EXTT8=
EXTT9=
EXTT10=
EXTT11=
EXTT12=
EXTT13=
EXTT14=
EXTT15=
PLAYORDER=
